<mxfile host="app.diagrams.net" modified="2024-05-06T14:41:47.178Z" agent="Mozilla/5.0 (Windows NT 10.0; Win64; x64) AppleWebKit/537.36 (KHTML, like Gecko) Chrome/124.0.0.0 Safari/537.36" version="24.3.1" etag="oeU4j4fJsnSyE-WllB0v" type="github">
  <diagram name="第 1 页" id="n8gh3nRVgvWFOPVfSvc9">
    <mxGraphModel>
      <root>
        <mxCell id="0" />
        <mxCell id="1" parent="0" />
      </root>
    </mxGraphModel>
  </diagram>
</mxfile>
